<svg xmlns="http://www.w3.org/2000/svg" viewBox="0 0 600 368.17"><defs><style>.cls-1{fill:#f9287d;}</style></defs><g id="Capa_2" data-name="Capa 2"><g id="Capa_5" data-name="Capa 5"><path class="cls-1" d="M600,157.59V94.75l-22.16-10V77.11L558.26,66.43v35.45h-1.77V25.56L542.91,35.3l-1.29,66.58h-1.88V61.05H523.18V43.53H500.93V28.21H479V63.6H460.35V42.81L433.86,53v48.86H421.71V53h-23v48.86h-1.2l-1.25-73.67L357.07,53v48.86h-4.38V61.05H326.2v40.83H256.42C243.64,43.69,191.71,0,129.73,0,58.2,0,0,58.2,0,129.73S58.2,259.47,129.73,259.47c62,0,113.91-43.69,126.69-101.88Zm-470.27,58.9a86.76,86.76,0,1,1,86.76-86.76A86.86,86.86,0,0,1,129.73,216.49Z"/><path class="cls-1" d="M337.8,188.41a7.48,7.48,0,0,1,2,5.45v68.81a7.57,7.57,0,0,1-2.06,5.51,7.86,7.86,0,0,1-10.72,0,7.69,7.69,0,0,1-2-5.51v-29H282.71v29a7.57,7.57,0,0,1-2.06,5.51,7.22,7.22,0,0,1-5.44,2.11,7.11,7.11,0,0,1-5.34-2.11,7.56,7.56,0,0,1-2.05-5.51V193.86a7.48,7.48,0,0,1,2-5.45,7.17,7.17,0,0,1,5.4-2,7.07,7.07,0,0,1,7.5,7.5v27.66H325V193.86a7.48,7.48,0,0,1,2-5.45,8.11,8.11,0,0,1,10.78,0Z"/><path class="cls-1" d="M365.94,261.85q-8.81-8.79-8.8-25.67V193.86a7.48,7.48,0,0,1,2-5.45,8.11,8.11,0,0,1,10.78,0,7.48,7.48,0,0,1,2,5.45V237q0,10.67,5,16.12t14.77,5.45q9.6,0,14.65-5.51t5-16.06V193.86a7.48,7.48,0,0,1,2-5.45,8.12,8.12,0,0,1,10.79,0,7.48,7.48,0,0,1,2,5.45v42.32q0,16.77-8.79,25.61t-25.67,8.85Q374.72,270.64,365.94,261.85Z"/><path class="cls-1" d="M511.35,188.41a7.62,7.62,0,0,1,1.94,5.45v68.81a7.73,7.73,0,0,1-2,5.51,7.42,7.42,0,0,1-10.91-.59l-42.78-55.68v50.76a8,8,0,0,1-1.88,5.51,7.36,7.36,0,0,1-10.32,0,8,8,0,0,1-1.87-5.51V193.86a7.48,7.48,0,0,1,2-5.45,7,7,0,0,1,5.28-2,6.59,6.59,0,0,1,5.62,2.69L499.1,244.5V193.86a7.62,7.62,0,0,1,1.94-5.45,6.68,6.68,0,0,1,5.1-2A6.82,6.82,0,0,1,511.35,188.41Z"/><path class="cls-1" d="M552.61,268.12a7.38,7.38,0,0,1-2.05-5.45v-63.3H529.23q-7,0-7-6.21t7-6.22H587q7,0,7,6.22t-7,6.21H565.68v63.3a7.05,7.05,0,0,1-7.5,7.5A7.53,7.53,0,0,1,552.61,268.12Z"/><path class="cls-1" d="M297.05,365.65A7.38,7.38,0,0,1,295,360.2V296.9H273.67q-7,0-7-6.21t7-6.22h57.79q7,0,7,6.22t-7,6.21H310.12v63.3a7.05,7.05,0,0,1-7.5,7.5A7.53,7.53,0,0,1,297.05,365.65Z"/><path class="cls-1" d="M358.36,363a34.41,34.41,0,0,1-13.65-14.77q-4.81-9.6-4.81-22.5t4.75-22.45a34,34,0,0,1,13.66-14.71q8.9-5.16,21-5.16t20.92,5.16a34.24,34.24,0,0,1,13.6,14.71q4.76,9.56,4.75,22.45t-4.81,22.5A34.43,34.43,0,0,1,400.09,363q-8.85,5.16-20.8,5.16T358.36,363Zm38.69-14.77q6.39-7.85,6.39-22.5t-6.39-22.45q-6.39-7.8-17.76-7.8t-17.88,7.8q-6.39,7.8-6.39,22.45t6.39,22.5q6.39,7.86,17.88,7.86T397.05,348.24Z"/><path class="cls-1" d="M442.12,359.38q-8.79-8.79-8.79-25.67V291.39a7.48,7.48,0,0,1,2-5.45,8.12,8.12,0,0,1,10.79,0,7.52,7.52,0,0,1,2,5.45v43.14q0,10.67,5,16.12t14.77,5.45q9.61,0,14.65-5.51t5-16.06V291.39a7.48,7.48,0,0,1,2-5.45,8.11,8.11,0,0,1,10.78,0,7.48,7.48,0,0,1,2,5.45v42.32q0,16.77-8.79,25.61t-25.67,8.85Q450.92,368.17,442.12,359.38Z"/><path class="cls-1" d="M587.25,361.72a5.52,5.52,0,0,1-2.17,4.46,7.88,7.88,0,0,1-5.1,1.76,7.63,7.63,0,0,1-6.45-3.52l-15.59-23.68a15.16,15.16,0,0,0-5-5.27,13.59,13.59,0,0,0-6.86-1.53H534.61V360.2a7.64,7.64,0,0,1-2,5.57,7.17,7.17,0,0,1-5.39,2.05,7.38,7.38,0,0,1-5.46-2.05,7.55,7.55,0,0,1-2-5.57V291.62a7,7,0,0,1,1.94-5.27,7.33,7.33,0,0,1,5.33-1.88H556.3q14.07,0,21.39,6.27T585,308.86q0,9.6-5.45,15.76t-15.42,7.92a14.64,14.64,0,0,1,6,2.93,25.6,25.6,0,0,1,5,5.86l10.67,16.29A7.42,7.42,0,0,1,587.25,361.72Zm-20.52-42.61q4-3.23,4-9.9t-4-9.91q-4-3.1-12.54-3.1h-19.7v26.14h19.7Q562.74,322.34,566.73,319.11Z"/></g></g></svg>