<svg xmlns="http://www.w3.org/2000/svg" viewBox="0 0 1524.01 232.56"><defs><style>.cls-1{fill:#f9287d;}</style></defs><g id="Capa_2" data-name="Capa 2"><g id="Capa_5" data-name="Capa 5"><path class="cls-1" d="M307.94,141.25a116.28,116.28,0,1,0,0-49.94H245.4V54.72H221.65V91.31h-3.92V47.52L182.64,25.28l-1.12,66h-1.07V47.52H159.8V91.31H148.91V47.52l-23.75-9.15V57H108.41V25.28H88.79V39H68.85v15.7H54V91.31H52.32L51.17,31.64,39,22.91v68.4H37.41V59.54L19.86,69.11V76L0,84.92v56.33Zm35.79-25A77.76,77.76,0,1,1,421.49,194,77.85,77.85,0,0,1,343.73,116.28Z"/><path class="cls-1" d="M668.65,58.34a10.82,10.82,0,0,1,2.88,7.87v99.3a10.9,10.9,0,0,1-3,7.94,10.25,10.25,0,0,1-7.7,3.05,10.15,10.15,0,0,1-7.78-3.05,11.06,11.06,0,0,1-2.88-7.94V123.72H589.14v41.79a10.86,10.86,0,0,1-3,7.94,10.42,10.42,0,0,1-7.86,3.05,10.24,10.24,0,0,1-7.7-3.05,10.9,10.9,0,0,1-3-7.94V66.21a10.82,10.82,0,0,1,2.88-7.87,10.35,10.35,0,0,1,7.78-3,10.18,10.18,0,0,1,10.82,10.83v39.92h61.07V66.21a10.82,10.82,0,0,1,2.88-7.87,11.7,11.7,0,0,1,15.56,0Z"/><path class="cls-1" d="M709.25,164.32q-12.69-12.69-12.69-37V66.21a10.82,10.82,0,0,1,2.88-7.87,11.7,11.7,0,0,1,15.56,0,10.82,10.82,0,0,1,2.88,7.87v62.25q0,15.39,7.27,23.26t21.31,7.87q13.88,0,21.15-8t7.27-23.17V66.21a10.82,10.82,0,0,1,2.88-7.87,11.7,11.7,0,0,1,15.56,0,10.81,10.81,0,0,1,2.87,7.87v61.06q0,24.2-12.68,37t-37,12.77Q721.94,177,709.25,164.32Z"/><path class="cls-1" d="M919.09,58.34a11,11,0,0,1,2.79,7.87v99.3a11.06,11.06,0,0,1-2.88,7.94,10.7,10.7,0,0,1-15.73-.84L841.53,92.26v73.25a11.5,11.5,0,0,1-2.71,7.94,10.6,10.6,0,0,1-14.88,0,11.45,11.45,0,0,1-2.71-7.94V66.21a10.82,10.82,0,0,1,2.88-7.87,10.12,10.12,0,0,1,7.61-3,9.53,9.53,0,0,1,8.12,3.89l61.57,80V66.21a11,11,0,0,1,2.79-7.87,9.66,9.66,0,0,1,7.36-3A9.87,9.87,0,0,1,919.09,58.34Z"/><path class="cls-1" d="M978.63,173.37a10.59,10.59,0,0,1-3-7.86V74.16H944.88q-10.15,0-10.15-9t10.15-9h83.4q10.14,0,10.15,9t-10.15,9H997.49v91.35a10.18,10.18,0,0,1-10.83,10.82A10.82,10.82,0,0,1,978.63,173.37Z"/><path class="cls-1" d="M1105.26,173.12a10.61,10.61,0,0,1-3-7.87V73.91h-30.79q-10.14,0-10.15-9t10.15-9h83.4q10.15,0,10.15,9t-10.15,9h-30.79v91.34a10.18,10.18,0,0,1-10.83,10.83A10.86,10.86,0,0,1,1105.26,173.12Z"/><path class="cls-1" d="M1193.73,169.31A49.7,49.7,0,0,1,1174,148q-6.93-13.87-6.93-32.48t6.85-32.4a49.19,49.19,0,0,1,19.7-21.22q12.85-7.45,30.28-7.45t30.2,7.45a49.43,49.43,0,0,1,19.62,21.22q6.85,13.8,6.85,32.4T1273.66,148A49.82,49.82,0,0,1,1254,169.31q-12.78,7.45-30,7.44Q1206.5,176.75,1193.73,169.31ZM1249.55,148q9.21-11.34,9.22-32.48t-9.22-32.4q-9.22-11.24-25.63-11.25-16.58,0-25.79,11.25t-9.22,32.4q0,21.15,9.22,32.48t25.79,11.33Q1240.33,159.33,1249.55,148Z"/><path class="cls-1" d="M1314.59,164.07q-12.69-12.69-12.68-37V66a10.79,10.79,0,0,1,2.87-7.86,11.7,11.7,0,0,1,15.56,0,10.79,10.79,0,0,1,2.88,7.86v62.26q0,15.39,7.27,23.25t21.32,7.87q13.86,0,21.14-8t7.28-23.17V66a10.83,10.83,0,0,1,2.87-7.86,11.7,11.7,0,0,1,15.56,0,10.79,10.79,0,0,1,2.88,7.86V127q0,24.2-12.69,37t-37,12.77Q1327.27,176.75,1314.59,164.07Z"/><path class="cls-1" d="M1524,167.45a7.92,7.92,0,0,1-3.13,6.43,11.35,11.35,0,0,1-7.36,2.54,11,11,0,0,1-9.3-5.08l-22.5-34.17q-3.39-5.41-7.19-7.61a19.68,19.68,0,0,0-9.89-2.2h-16.58v37.89a11,11,0,0,1-2.88,8,10.36,10.36,0,0,1-7.78,3,10.67,10.67,0,0,1-7.87-3,10.87,10.87,0,0,1-3-8V66.3c0-3.28.93-5.81,2.8-7.62a10.59,10.59,0,0,1,7.69-2.71h42.29q20.31,0,30.87,9t10.58,26.14q0,13.88-7.87,22.75t-22.24,11.42a21.3,21.3,0,0,1,8.62,4.23,37.27,37.27,0,0,1,7.28,8.46L1522,161.53A10.63,10.63,0,0,1,1524,167.45ZM1494.41,106q5.74-4.65,5.75-14.29,0-9.81-5.75-14.3t-18.1-4.48h-28.42v37.72h28.42Q1488.66,110.61,1494.41,106Z"/></g></g></svg>