<svg xmlns="http://www.w3.org/2000/svg" viewBox="0 0 486.65 444.04"><defs><style>.cls-1{fill:#f9287d;}.cls-2{fill:#fff;}.cls-3{fill:#303030;}</style></defs><g id="Capa_2" data-name="Capa 2"><g id="Capa_1-2" data-name="Capa 1"><path class="cls-1" d="M277.93,5.85c-23.75-8.62-49.34-6.8-70.39-.43-37.43,11.33-55.46,53.35-55.46,53.35-1,2.21-1.91,4.47-2.74,6.78a99.24,99.24,0,0,0,0,68.06h0l4.93,13.75,35.52,99.38,19,45.11c3.66,9.59,7.21,19.77,13.1,31.78,1.87,3.71,4.23,10.56,8.38,14.62s7.62,4.25,10.63,5.34a17.66,17.66,0,0,0,14.12-.83q7.11-3.37,10.52-12.78l71.73-196.79.1-.27c0-.08.05-.15.08-.22l.6-1.64a3.83,3.83,0,0,0,.21-.71A99.35,99.35,0,0,0,277.93,5.85Z"/><path class="cls-2" d="M300.72,158.56,280.14,215.3s-2,5.49-3,8.37c-3,8.33-4,11.3-4.05,11.16L250.9,295.59a5.21,5.21,0,0,1-9.72.16L177,136.85l-7-17.53a77.56,77.56,0,0,1,41.3-89.64,14.17,14.17,0,1,1,12.35,25.51,48.82,48.82,0,0,0-23.46,64.68,48.09,48.09,0,0,0,64.27,23.32c33.21-15.66,37.68-61.13,8.75-82.93L257.36,104a14.13,14.13,0,1,1-26.56-9.64l21.43-59.09c1.2-3.3,2.64-4.23,3.17-5.08l4.15-3,.31-.14h0l.31-.13h0l.32-.13.31-.11h0l.32-.11h0l.32-.1.33-.1.33-.08h0l.33-.08.33-.08.34-.06.33-.06.34,0,.34,0,.35,0,.34,0h1.38l.35,0,.35,0,.35,0h0l.34.05.35,0,.35.07h0l.35.07.35.08.34.1h0l.35.1h0l.35.11h0l.34.12a76.14,76.14,0,0,1,43.22,39.69C328.18,97.9,314.47,123.55,300.72,158.56Z"/><path class="cls-3" d="M17.71,430.63H44.58a9.83,9.83,0,0,1,6.12,1.64,5.37,5.37,0,0,1,2.11,4.47A5.93,5.93,0,0,1,51.14,441a6.72,6.72,0,0,1-5.07,1.75H8.18a8.17,8.17,0,0,1-6-2.14,6.81,6.81,0,0,1-2.16-5,12.63,12.63,0,0,1,1.39-4.9,17.72,17.72,0,0,1,3-4.81q6.84-7.09,12.35-12.15a79.77,79.77,0,0,1,7.88-6.66,45.36,45.36,0,0,0,7-6A23.91,23.91,0,0,0,36,394.94a14.76,14.76,0,0,0,1.46-6.2,11.1,11.1,0,0,0-1.57-5.88,10.83,10.83,0,0,0-4.27-4,12.34,12.34,0,0,0-5.89-1.44,12.05,12.05,0,0,0-10.61,5.91,25.41,25.41,0,0,0-1.72,4.21,17.59,17.59,0,0,1-2.73,5.29,5.41,5.41,0,0,1-4.45,1.85A5.82,5.82,0,0,1,1.9,393a6.25,6.25,0,0,1-1.69-4.63,19.4,19.4,0,0,1,1.59-7.4,21.31,21.31,0,0,1,4.76-7,23.67,23.67,0,0,1,8-5.06A31,31,0,0,1,26,367a33.07,33.07,0,0,1,13.43,2.47,20.27,20.27,0,0,1,6.33,4.52,21.22,21.22,0,0,1,5.77,14.5A21.88,21.88,0,0,1,48.36,400a35.94,35.94,0,0,1-6.46,8.18q-3.3,3-11,9.27a82.51,82.51,0,0,0-10.63,9.82A29.57,29.57,0,0,0,17.71,430.63Z"/><path class="cls-3" d="M134,412.13v14.44a15.43,15.43,0,0,1-.56,4.6,7.36,7.36,0,0,1-2.09,3.11,19.92,19.92,0,0,1-3.89,2.67,60.89,60.89,0,0,1-13.17,5.4,53.24,53.24,0,0,1-13.8,1.69,45,45,0,0,1-15.85-2.67,33.33,33.33,0,0,1-12.2-7.76,34.07,34.07,0,0,1-7.75-12.34A46,46,0,0,1,62,405.09,47.27,47.27,0,0,1,64.6,389a33.1,33.1,0,0,1,7.72-12.38,33.88,33.88,0,0,1,12.41-7.79,47.6,47.6,0,0,1,16.57-2.7,41.28,41.28,0,0,1,13.49,2,29.86,29.86,0,0,1,9.52,5.11,22.81,22.81,0,0,1,5.51,6.53,13.24,13.24,0,0,1,1.86,6.12,6.55,6.55,0,0,1-2.14,4.91,7.18,7.18,0,0,1-5.12,2,6.85,6.85,0,0,1-3.17-.78,7.23,7.23,0,0,1-2.55-2.15,60.6,60.6,0,0,0-4.78-6.69,15.68,15.68,0,0,0-5.28-3.8,20.14,20.14,0,0,0-8.47-1.54,23.52,23.52,0,0,0-9.47,1.82,19.52,19.52,0,0,0-7.13,5.3,24,24,0,0,0-4.53,8.5,37.3,37.3,0,0,0-1.57,11.16q0,13.26,6.1,20.4t17,7.14a34.5,34.5,0,0,0,10-1.39,50.19,50.19,0,0,0,9.45-3.95V414.65H108.15a12.94,12.94,0,0,1-6.46-1.29A4.65,4.65,0,0,1,99.5,409a5.35,5.35,0,0,1,1.83-4.16,7.13,7.13,0,0,1,5-1.64h17.35a22.06,22.06,0,0,1,5.4.56,6.12,6.12,0,0,1,3.58,2.52A10.25,10.25,0,0,1,134,412.13Z"/><path class="cls-3" d="M200.19,415.52a33,33,0,0,1-2,11.56,25.52,25.52,0,0,1-5.66,9.1,25,25,0,0,1-8.85,5.83,31.4,31.4,0,0,1-11.58,2A30.42,30.42,0,0,1,160.66,442a25.33,25.33,0,0,1-14.49-14.93,33,33,0,0,1-1.93-11.54,33.54,33.54,0,0,1,1.95-11.67,25.51,25.51,0,0,1,5.61-9,24.73,24.73,0,0,1,8.86-5.78,33.6,33.6,0,0,1,23.06,0A24.91,24.91,0,0,1,198.26,404,33.11,33.11,0,0,1,200.19,415.52Zm-14.1,0q0-8.58-3.79-13.36a12.28,12.28,0,0,0-10.16-4.78,12.61,12.61,0,0,0-7.26,2.13,13.44,13.44,0,0,0-4.84,6.3,28.53,28.53,0,0,0,0,19.32,13.75,13.75,0,0,0,4.79,6.29,12.44,12.44,0,0,0,7.34,2.19,12.25,12.25,0,0,0,10.16-4.81Q186.08,424,186.09,415.52Z"/><path class="cls-3" d="M261.24,380H244.56v54.73q0,4.72-2.11,7A7.06,7.06,0,0,1,237,444a7.21,7.21,0,0,1-5.54-2.31q-2.13-2.31-2.13-7V380H212.65c-2.61,0-4.55-.58-5.82-1.72a5.85,5.85,0,0,1-1.9-4.55,5.77,5.77,0,0,1,2-4.63,8.59,8.59,0,0,1,5.74-1.69h48.59c2.64,0,4.61.58,5.89,1.74a5.89,5.89,0,0,1,1.94,4.58,5.79,5.79,0,0,1-2,4.55C265.8,379.43,263.85,380,261.24,380Z"/><path class="cls-3" d="M323.11,415.52a33.19,33.19,0,0,1-1.95,11.56,25.66,25.66,0,0,1-5.66,9.1,25.06,25.06,0,0,1-8.86,5.83,31.4,31.4,0,0,1-11.58,2A30.5,30.5,0,0,1,283.58,442a25.33,25.33,0,0,1-14.49-14.93,35.59,35.59,0,0,1,0-23.21,25.23,25.23,0,0,1,5.61-9,24.68,24.68,0,0,1,8.85-5.78,33.6,33.6,0,0,1,23.06,0A24.89,24.89,0,0,1,321.19,404,33.34,33.34,0,0,1,323.11,415.52Zm-14.1,0q0-8.58-3.78-13.36a12.3,12.3,0,0,0-10.17-4.78,12.63,12.63,0,0,0-7.26,2.13,13.57,13.57,0,0,0-4.84,6.3,25.6,25.6,0,0,0-1.69,9.71,25.28,25.28,0,0,0,1.67,9.61,13.68,13.68,0,0,0,4.79,6.29,12.4,12.4,0,0,0,7.33,2.19,12.27,12.27,0,0,0,10.17-4.81Q309,424,309,415.52Z"/><path class="cls-3" d="M370.68,436.13v-1.8a31.54,31.54,0,0,1-5.3,5.34,19.77,19.77,0,0,1-6.08,3.22,24.68,24.68,0,0,1-7.51,1.05,19.4,19.4,0,0,1-9.14-2.11A15.34,15.34,0,0,1,336.4,436q-2.62-4.47-2.63-12.84V395.37c0-2.81.64-4.9,1.91-6.29a6.48,6.48,0,0,1,5-2.08,6.72,6.72,0,0,1,5.15,2.1q2,2.11,1.95,6.27v22.46a34.52,34.52,0,0,0,.83,8.2,9.81,9.81,0,0,0,3,5.19,8.45,8.45,0,0,0,5.79,1.87,11.81,11.81,0,0,0,6.69-2.1,12.35,12.35,0,0,0,4.58-5.5q1.18-3,1.18-13.05V395.37c0-2.77.66-4.86,2-6.27a6.65,6.65,0,0,1,5.1-2.1,6.5,6.5,0,0,1,5,2.08c1.27,1.39,1.91,3.48,1.91,6.29V436c0,2.68-.61,4.68-1.83,6a6.52,6.52,0,0,1-9.47-.08A8.41,8.41,0,0,1,370.68,436.13Z"/><path class="cls-3" d="M411.81,423.79v11.72c0,2.84-.67,5-2,6.4a6.71,6.71,0,0,1-5.1,2.13,6.45,6.45,0,0,1-5-2.16q-1.95-2.16-1.95-6.37V396.45q0-9.45,6.84-9.45c2.33,0,4,.73,5,2.21a12.14,12.14,0,0,1,1.69,6.52,24.72,24.72,0,0,1,5.18-6.52A10.64,10.64,0,0,1,423.6,387a18,18,0,0,1,8.59,2.21q4.17,2.21,4.17,5.85a5.88,5.88,0,0,1-5.61,5.91,17.28,17.28,0,0,1-3.73-1,17.51,17.51,0,0,0-5.23-.95,7.64,7.64,0,0,0-5,1.62,10.41,10.41,0,0,0-3,4.81,33.23,33.23,0,0,0-1.49,7.58C411.94,416,411.81,419.58,411.81,423.79Z"/><path class="cls-3" d="M486.65,425.69a16.28,16.28,0,0,1-11.19,16.22A37.6,37.6,0,0,1,462,444a32.87,32.87,0,0,1-13-2.31,18.82,18.82,0,0,1-8-5.78,11.66,11.66,0,0,1-2.58-7,5.36,5.36,0,0,1,1.65-4,5.65,5.65,0,0,1,4.17-1.65,4.87,4.87,0,0,1,3.4,1.08,11.82,11.82,0,0,1,2.26,3,15.34,15.34,0,0,0,5.18,5.6,15.53,15.53,0,0,0,8.21,1.86,11.88,11.88,0,0,0,6.92-1.88q2.7-1.87,2.7-4.29a5.84,5.84,0,0,0-2.8-5.4,34.82,34.82,0,0,0-9.24-3.24,75.83,75.83,0,0,1-11.82-3.77,19.5,19.5,0,0,1-7.28-5.22,11.93,11.93,0,0,1-2.73-8,14.05,14.05,0,0,1,2.52-8,17.29,17.29,0,0,1,7.44-6A28.54,28.54,0,0,1,460.92,387a38.75,38.75,0,0,1,9.8,1.13,24.34,24.34,0,0,1,7.26,3,15,15,0,0,1,4.43,4.21,8.28,8.28,0,0,1,1.52,4.53,5.19,5.19,0,0,1-1.62,4,6.44,6.44,0,0,1-4.61,1.54,5.66,5.66,0,0,1-3.68-1.23,23.79,23.79,0,0,1-3.48-3.7,12.53,12.53,0,0,0-3.76-3.29,11.85,11.85,0,0,0-5.86-1.23,11.49,11.49,0,0,0-6.33,1.62,4.71,4.71,0,0,0-2.53,4,4.39,4.39,0,0,0,1.86,3.63,15.26,15.26,0,0,0,5,2.33q3.13.93,8.65,2.26a46.66,46.66,0,0,1,10.68,3.81,17.82,17.82,0,0,1,6.28,5.21A11.58,11.58,0,0,1,486.65,425.69Z"/></g></g></svg>