<svg xmlns="http://www.w3.org/2000/svg" viewBox="0 0 1433.24 297.37"><defs><style>.cls-1{fill:#f9287d;}.cls-2{fill:#fff;}</style></defs><g id="Capa_2" data-name="Capa 2"><g id="Capa_1-2" data-name="Capa 1"><path class="cls-1" d="M116.13,5C95.63-2.39,73.56-.82,55.4,4.68c-32.29,9.77-47.85,46-47.85,46q-1.27,2.85-2.37,5.84a85.61,85.61,0,0,0,0,58.72h0l4.25,11.86,30.64,85.74,16.4,38.92c3.16,8.28,6.21,17.06,11.29,27.42,1.62,3.2,3.65,9.11,7.23,12.61s6.58,3.67,9.17,4.61a15.29,15.29,0,0,0,12.19-.72q6.13-2.91,9.08-11l61.88-169.78.09-.24.06-.19.52-1.41a6.13,6.13,0,0,0,.19-.61A85.74,85.74,0,0,0,116.13,5Z"/><path class="cls-2" d="M135.78,136.8,118,185.75,115.41,193c-2.61,7.19-3.42,9.74-3.49,9.63L88.8,266,29.07,118.07,23,103A66.9,66.9,0,0,1,59,25.44a12.13,12.13,0,0,1,16.2,5.87,12.32,12.32,0,0,1-5.92,16.31,42.12,42.12,0,0,0-20.24,55.8,41.49,41.49,0,0,0,55.46,20.11C133.18,110,137,70.8,112.07,52L98.38,89.73a12.19,12.19,0,1,1-22.92-8.31l18.5-51a12.8,12.8,0,0,1,2.73-4.37l3.58-2.56.27-.12h0l.27-.12h0l.27-.11.27-.1h0l.28-.1h0l.28-.09.28-.08.29-.07h0l.28-.06.29-.07.29-.05.29-.05.29,0,.3,0,.29,0,.3,0H106l.3,0,.3,0,.3,0h0l.3,0,.3,0,.3.06h0l.3.06.3.07.3.08h0l.3.09h0l.3.1h0l.3.1A65.67,65.67,0,0,1,146.88,57.3C159.48,84.46,147.65,106.59,135.78,136.8Z"/><path class="cls-1" d="M265.26,212.65h66.92q10,0,15.26,4.1a13.37,13.37,0,0,1,5.26,11.13,14.8,14.8,0,0,1-4.17,10.63q-4.17,4.35-12.63,4.35H241.54q-9.61,0-15-5.31a17,17,0,0,1-5.38-12.48q0-4.62,3.46-12.23a43.78,43.78,0,0,1,7.56-12Q249.24,183.21,263,170.6T282.57,154a113.73,113.73,0,0,0,17.5-14.91,59.71,59.71,0,0,0,10.64-15.37,36.49,36.49,0,0,0,3.65-15.42,27.68,27.68,0,0,0-3.91-14.65,27.08,27.08,0,0,0-10.64-10.05A30.75,30.75,0,0,0,285.13,80q-16.8,0-26.41,14.72-1.29,1.92-4.29,10.5t-6.8,13.18q-3.78,4.61-11.09,4.61a14.45,14.45,0,0,1-10.64-4.22q-4.23-4.23-4.23-11.52a48.06,48.06,0,0,1,4-18.43A52.74,52.74,0,0,1,237.5,71.47a58.75,58.75,0,0,1,20-12.61q12.12-4.8,28.4-4.8,19.62,0,33.46,6.14a50.51,50.51,0,0,1,15.77,11.27,52.76,52.76,0,0,1,14.36,36.09,54.63,54.63,0,0,1-7.88,28.87q-7.89,13-16.09,20.35T298,179.88q-19.31,15.75-26.48,24.45A72.82,72.82,0,0,0,265.26,212.65Z"/><path class="cls-1" d="M554.88,166.57v36A37.66,37.66,0,0,1,553.47,214a18.14,18.14,0,0,1-5.19,7.75,48.94,48.94,0,0,1-9.68,6.65,151.87,151.87,0,0,1-32.82,13.44,132.34,132.34,0,0,1-34.36,4.23q-21.68,0-39.49-6.66a83.12,83.12,0,0,1-30.39-19.32,85.41,85.41,0,0,1-19.29-30.73q-6.74-18-6.73-40.32A117.59,117.59,0,0,1,382.06,109a82.33,82.33,0,0,1,19.23-30.85,84.49,84.49,0,0,1,30.9-19.39Q450.39,52,473.47,52q19,0,33.59,5.06T530.78,69.8A56.81,56.81,0,0,1,544.5,86.06q4.61,8.58,4.61,15.23a16.25,16.25,0,0,1-5.32,12.23,17.87,17.87,0,0,1-12.76,5,17.19,17.19,0,0,1-7.88-1.92,17.88,17.88,0,0,1-6.35-5.38,152.39,152.39,0,0,0-11.92-16.64,38.57,38.57,0,0,0-13.14-9.47q-8.26-3.84-21.09-3.84a58.26,58.26,0,0,0-23.59,4.55A48.81,48.81,0,0,0,429.3,99.05,59.51,59.51,0,0,0,418,120.24,92.9,92.9,0,0,0,414.11,148q0,33,15.19,50.82t42.37,17.79a86.24,86.24,0,0,0,24.81-3.46A125.82,125.82,0,0,0,520,203.31V172.84H490.52q-10.63,0-16.09-3.2T469,158.76a13.38,13.38,0,0,1,4.55-10.37q4.56-4.09,12.38-4.09h43.2a55.08,55.08,0,0,1,13.46,1.41,15.17,15.17,0,0,1,8.91,6.27Q554.89,156.84,554.88,166.57Z"/><path class="cls-1" d="M719.76,175a82.67,82.67,0,0,1-4.87,28.8,63.6,63.6,0,0,1-14.11,22.66,62.24,62.24,0,0,1-22,14.52,78.1,78.1,0,0,1-28.85,5.06,75.94,75.94,0,0,1-28.59-5.12,63.11,63.11,0,0,1-36.09-37.19A82.35,82.35,0,0,1,580.4,175,83.24,83.24,0,0,1,585.27,146a63,63,0,0,1,14-22.52,61.62,61.62,0,0,1,22-14.4,83.57,83.57,0,0,1,57.44.06A62,62,0,0,1,715,146.22,82.64,82.64,0,0,1,719.76,175Zm-35.13,0q0-21.37-9.42-33.28t-25.33-11.9a31.39,31.39,0,0,0-18.07,5.31q-7.83,5.31-12,15.68T615.52,175q0,13.69,4.17,23.93t11.92,15.68a31,31,0,0,0,18.27,5.45q15.9,0,25.33-12T684.63,175Z"/><path class="cls-1" d="M871.81,86.57H830.27V222.89q0,11.78-5.25,17.47a17.66,17.66,0,0,1-13.59,5.7,17.91,17.91,0,0,1-13.79-5.76q-5.31-5.76-5.32-17.41V86.57H750.78q-9.74,0-14.48-4.29A14.5,14.5,0,0,1,731.55,71q0-7.29,4.94-11.51t14.29-4.23h121q9.87,0,14.68,4.35A14.64,14.64,0,0,1,891.3,71a14.33,14.33,0,0,1-4.87,11.33Q881.56,86.57,871.81,86.57Z"/><path class="cls-1" d="M1025.92,175a82.44,82.44,0,0,1-4.87,28.8,63.72,63.72,0,0,1-14.1,22.66A62.37,62.37,0,0,1,984.89,241a78,78,0,0,1-28.84,5.06,75.9,75.9,0,0,1-28.59-5.12,63,63,0,0,1-36.09-37.19A82.12,82.12,0,0,1,886.56,175,83.24,83.24,0,0,1,891.43,146a63.06,63.06,0,0,1,14-22.52A61.45,61.45,0,0,1,927.46,109a83.54,83.54,0,0,1,57.43.06,62,62,0,0,1,36.22,37.12A82.64,82.64,0,0,1,1025.92,175Zm-35.13,0q0-21.37-9.42-33.28t-25.32-11.9A31.4,31.4,0,0,0,938,135.15q-7.83,5.31-12.05,15.68T921.69,175q0,13.69,4.16,23.93t11.93,15.68a31,31,0,0,0,18.27,5.45q15.88,0,25.32-12T990.79,175Z"/><path class="cls-1" d="M1144.39,226.35v-4.48a78.55,78.55,0,0,1-13.21,13.31,48.83,48.83,0,0,1-15.13,8,61.39,61.39,0,0,1-18.72,2.62,48.41,48.41,0,0,1-22.75-5.25A38.3,38.3,0,0,1,1059,226.09q-6.54-11.13-6.54-32V124.84q0-10.49,4.74-15.68t12.57-5.18q7.95,0,12.82,5.25t4.87,15.61v55.94a86,86,0,0,0,2,20.41q2.06,8.26,7.37,12.93t14.43,4.67a29.35,29.35,0,0,0,16.66-5.24,30.61,30.61,0,0,0,11.41-13.7q3-7.42,2.95-32.51v-42.5q0-10.36,4.88-15.61A16.49,16.49,0,0,1,1159.9,104q7.81,0,12.56,5.18t4.75,15.68V226.09q0,10-4.56,15a16.21,16.21,0,0,1-23.59-.2Q1144.38,235.7,1144.39,226.35Z"/><path class="cls-1" d="M1246.82,195.63v29.18q0,10.62-5,15.94a16.67,16.67,0,0,1-12.69,5.31,16,16,0,0,1-12.44-5.38q-4.87-5.37-4.87-15.87V127.53q0-23.55,17-23.55,8.73,0,12.57,5.5t4.23,16.26q6.28-10.76,12.89-16.26t17.62-5.5a45.27,45.27,0,0,1,21.41,5.5Q1308,115,1308,124.07a13.89,13.89,0,0,1-4.42,10.56,13.72,13.72,0,0,1-9.56,4.16c-1.28,0-4.38-.78-9.29-2.36a43.32,43.32,0,0,0-13-2.37q-7.7,0-12.57,4t-7.56,12a82.88,82.88,0,0,0-3.72,18.88Q1246.82,179.89,1246.82,195.63Z"/><path class="cls-1" d="M1433.24,200.36q0,14.47-7,24.77t-20.84,15.62q-13.77,5.31-33.52,5.31-18.86,0-32.31-5.76t-19.87-14.4q-6.42-8.64-6.41-17.35a13.39,13.39,0,0,1,4.1-9.85,14.09,14.09,0,0,1,10.38-4.1q5.52,0,8.47,2.69a29.7,29.7,0,0,1,5.64,7.55q5.39,9.34,12.88,13.95t20.45,4.61q10.52,0,17.24-4.67t6.74-10.69q0-9.21-7-13.44t-23-8.06q-18.08-4.48-29.42-9.41a48.37,48.37,0,0,1-18.14-13q-6.79-8.07-6.79-19.84a34.93,34.93,0,0,1,6.28-19.84q6.29-9.34,18.52-14.91t29.55-5.57a97.09,97.09,0,0,1,24.43,2.82,60.75,60.75,0,0,1,18.08,7.55,37.26,37.26,0,0,1,11,10.49,20.54,20.54,0,0,1,3.78,11.27,13,13,0,0,1-4,9.85q-4,3.84-11.48,3.84a14,14,0,0,1-9.16-3.07,60,60,0,0,1-8.66-9.22,31.7,31.7,0,0,0-9.36-8.19q-5.38-3.07-14.62-3.07-9.48,0-15.76,4t-6.29,10.05a10.88,10.88,0,0,0,4.62,9,38.56,38.56,0,0,0,12.44,5.82q7.81,2.31,21.53,5.63,16.29,4,26.61,9.47t15.64,13A28.72,28.72,0,0,1,1433.24,200.36Z"/></g></g></svg>