<svg xmlns="http://www.w3.org/2000/svg" viewBox="0 0 200 344.68"><defs><style>.cls-1{fill:#303030;}.cls-2{fill:#f9287d;}</style></defs><g id="Capa_2" data-name="Capa 2"><g id="Capa_1-2" data-name="Capa 1"><path class="cls-1" d="M134.61,5.85c-23.76-8.62-49.35-6.8-70.4-.43C26.78,16.75,8.75,58.77,8.75,58.77Q7.27,62.08,6,65.55a99.29,99.29,0,0,0,0,68.06H6L11,147.36l35.52,99.38,19,45.11c3.67,9.59,7.21,19.77,13.1,31.78,1.87,3.71,4.23,10.56,8.38,14.62s7.62,4.25,10.63,5.34a17.66,17.66,0,0,0,14.12-.83q7.11-3.37,10.52-12.78L194,133.19l.1-.27c0-.08.06-.15.08-.22l.6-1.64a3.83,3.83,0,0,0,.21-.71A99.35,99.35,0,0,0,134.61,5.85Z"/><path class="cls-2" d="M157.39,158.56,136.81,215.3s-2,5.49-3,8.37c-3,8.33-4,11.3-4.05,11.16l-26.79,73.5L33.7,136.85l-7-17.53A77.57,77.57,0,0,1,68.42,29.48,14.08,14.08,0,0,1,87.2,36.3a14.27,14.27,0,0,1-6.86,18.89,48.83,48.83,0,0,0-23.46,64.68,48.09,48.09,0,0,0,64.28,23.32c33.21-15.66,37.67-61.13,8.74-82.93L114,104a14.13,14.13,0,1,1-26.56-9.64L108.9,35.28c1.2-3.3,2.64-4.23,3.17-5.08l4.15-3,.31-.14h0l.31-.13h0l.32-.13.32-.11h0l.32-.11h0l.32-.1.33-.1.33-.08h0l.33-.08.33-.08.34-.06.34-.06.34,0,.34,0,.34,0,.34,0h1.39l.34,0,.35,0,.35,0h0l.35.05.35,0,.34.07h0l.35.07.35.08.35.1h0l.34.1h0l.35.11h0l.34.12a76.08,76.08,0,0,1,43.22,39.69C184.85,97.9,171.14,123.55,157.39,158.56Z"/></g></g></svg>