<svg xmlns="http://www.w3.org/2000/svg" viewBox="0 0 254.37 254.37"><defs><style>.cls-1{fill:#f9287d;}.cls-2{fill:#f7f7f7;}</style></defs><g id="Capa_2" data-name="Capa 2"><g id="Capa_5" data-name="Capa 5"><rect class="cls-1" width="254.37" height="254.37" rx="55"/><path class="cls-2" d="M237.79,40l-9.15-9.14-8.94-8.94-2.31-2.31L207,23.55l-2.49-2.49L194.65,24l11.51,11.51-.58.57L180.81,11.26l-1.24,7.57,21.19,22-.61.61L186.9,28.22l-5.38,5.37-5.69-5.68-7.22,7.22-5-5-7.11,7.1L168,48.75,162,54.81l-6.76-6.75L149.92,60l15.86,15.86-3.95,3.94L146,63.92,138.5,71.4l15.86,15.86-.39.39L129.65,64.14,125,84.9l15.86,15.86-1.42,1.42L126.18,88.93l-8.59,8.6,13.25,13.25-22.65,22.65a59.55,59.55,0,1,0,18.08,18.08ZM104.27,211.75a39.82,39.82,0,1,1,0-56.32A39.88,39.88,0,0,1,104.27,211.75Z"/></g></g></svg>